# xmcd
#
# Track frame offsets: 
#        150
#        19079
#        43405
#        61486
#        78320
#        101118
#        126229
#        141980
#
# Disc length: 2152 seconds
#
# Revision: 2
# Processed by: cddbd v1.5PL3 Copyright (c) Steve Scherf et al.
# Submitted via: ExactAudioCopy v0.95a4
#
DISCID=73086608
DTITLE=Oscar Peterson - Canadiana Suite
DYEAR=1900
DGENRE=Jazz
TTITLE0=Ballad to the East
TTITLE1=Laurentide Walts
TTITLE2=Place St.Henri
TTITLE3=Hogtown Blues
TTITLE4=Bulues of the Prairies
TTITLE5=Wheatland
TTITLE6=March Past
TTITLE7=Land of the misty Giants
EXTD=
EXTT0=
EXTT1=
EXTT2=
EXTT3=
EXTT4=
EXTT5=
EXTT6=
EXTT7=
PLAYORDER=
